<svg xmlns="http://www.w3.org/2000/svg" viewBox="0 0 176 78"><defs><style>.cls-1{fill:none;}.cls-2{fill:#3c0178;}.cls-3{fill:#3a84a7;}</style></defs><g id="_g" data-name="@g"><g id="Group_4061" data-name="Group 4061"><g id="Group_3999" data-name="Group 3999"><g id="Group_3721" data-name="Group 3721"><g id="Group_3720" data-name="Group 3720"><rect id="Rectangle_20664" data-name="Rectangle 20664" class="cls-1" width="175.5" height="78"/></g></g></g><g id="Group_4059" data-name="Group 4059"><g id="Group_4059-2" data-name="Group 4059-2"><path id="Path_3062" data-name="Path 3062" class="cls-2" d="M37.23,22.75a8.14,8.14,0,0,0-2.95-2.19A7.87,7.87,0,0,0,31.41,20a9.65,9.65,0,0,0-3.9.76,9,9,0,0,0-3,2.11A9.56,9.56,0,0,0,22.59,26a10.68,10.68,0,0,0-.69,3.87,11.89,11.89,0,0,0,.69,4.1,9.57,9.57,0,0,0,1.93,3.25,9.1,9.1,0,0,0,3,2.15,9.51,9.51,0,0,0,3.9.78,7.27,7.27,0,0,0,3.26-.8,9,9,0,0,0,2.95-2.56l4.07,2.89a11.09,11.09,0,0,1-4.58,3.75,14,14,0,0,1-5.74,1.17,16.21,16.21,0,0,1-5.89-1,13.2,13.2,0,0,1-7.63-7.48,15.54,15.54,0,0,1-1.1-5.91,16.24,16.24,0,0,1,1.1-6,13.57,13.57,0,0,1,3-4.63,13.19,13.19,0,0,1,4.61-2.95,16.17,16.17,0,0,1,5.88-1,13.32,13.32,0,0,1,5.22,1,12.12,12.12,0,0,1,4.48,3.38Z"/><path id="Path_3063" data-name="Path 3063" class="cls-2" d="M43.11,33.77a12,12,0,0,1,.81-4.47,10.11,10.11,0,0,1,2.25-3.44,9.85,9.85,0,0,1,3.42-2.18,11.78,11.78,0,0,1,4.35-.77,12.07,12.07,0,0,1,4.41.71,9.54,9.54,0,0,1,3.44,2.16,10,10,0,0,1,2.26,3.41,11.75,11.75,0,0,1,.81,4.46A11.31,11.31,0,0,1,64.05,38a9.89,9.89,0,0,1-2.26,3.38,10.22,10.22,0,0,1-3.44,2.22,12.55,12.55,0,0,1-4.41.83,12.2,12.2,0,0,1-4.35-.77,9.78,9.78,0,0,1-5.67-5.55A11.45,11.45,0,0,1,43.11,33.77Zm3.83-.23a8.78,8.78,0,0,0,.5,3A7.09,7.09,0,0,0,48.88,39a6.74,6.74,0,0,0,2.21,1.6,7.61,7.61,0,0,0,5.78,0A6.58,6.58,0,0,0,59.1,39a7.06,7.06,0,0,0,1.43-2.4,8.79,8.79,0,0,0,.51-3,7.83,7.83,0,0,0-.51-2.87,7.19,7.19,0,0,0-1.43-2.33,6.66,6.66,0,0,0-2.23-1.56,7.21,7.21,0,0,0-2.9-.57,7.12,7.12,0,0,0-2.88.57,6.49,6.49,0,0,0-2.21,1.56,7.21,7.21,0,0,0-1.44,2.33,8,8,0,0,0-.5,2.87Z"/><path id="Path_3064" data-name="Path 3064" class="cls-2" d="M86.55,42.43a17.75,17.75,0,0,1-8.48,2,12.22,12.22,0,0,1-4.36-.77,9.76,9.76,0,0,1-5.66-5.55,11.26,11.26,0,0,1-.81-4.37,11.85,11.85,0,0,1,.81-4.48,10.14,10.14,0,0,1,2.24-3.43,9.79,9.79,0,0,1,3.42-2.18,11.79,11.79,0,0,1,4.36-.77,16.81,16.81,0,0,1,4.4.56,9.11,9.11,0,0,1,3.68,2l-2.7,2.72a6.67,6.67,0,0,0-2.39-1.48,8.56,8.56,0,0,0-3-.52,7.12,7.12,0,0,0-2.88.57A6.49,6.49,0,0,0,73,28.34a7.21,7.21,0,0,0-1.44,2.33,8,8,0,0,0-.5,2.87,9,9,0,0,0,.5,3A7,7,0,0,0,73,39a6.74,6.74,0,0,0,2.21,1.6,7.13,7.13,0,0,0,2.88.58,13.53,13.53,0,0,0,2.62-.26,7.69,7.69,0,0,0,2.19-.81V35.25H78.7V32h7.85Z"/><path id="Path_3065" data-name="Path 3065" class="cls-2" d="M90.87,23.43H95.7l9.94,15.23h0V23.43h3.65v20.5h-4.63L94.57,28.21h0V43.93H90.87Z"/><path id="Path_3066" data-name="Path 3066" class="cls-2" d="M113.16,25.31a2,2,0,0,1,.63-1.46,2.16,2.16,0,0,1,1.58-.62,2.3,2.3,0,0,1,1.6.59,2,2,0,0,1,.11,2.87l-.11.12a2.3,2.3,0,0,1-1.6.59,2.16,2.16,0,0,1-1.58-.62A2,2,0,0,1,113.16,25.31Zm.5,4.72h3.47v13.9h-3.47Z"/><path id="Path_3067" data-name="Path 3067" class="cls-2" d="M125.65,26.73h-6.29v-3.3h16.22v3.3H129.3v17.2h-3.65Z"/><path id="Path_3068" data-name="Path 3068" class="cls-2" d="M137,33.77a11.76,11.76,0,0,1,.81-4.47A10.08,10.08,0,0,1,140,25.86a9.94,9.94,0,0,1,3.42-2.18,11.79,11.79,0,0,1,4.36-.77,12,12,0,0,1,4.4.71,9.5,9.5,0,0,1,3.45,2.16,10,10,0,0,1,2.26,3.41,11.94,11.94,0,0,1,.81,4.46,11.5,11.5,0,0,1-.81,4.38,10,10,0,0,1-5.71,5.6,12.45,12.45,0,0,1-4.4.83,12.22,12.22,0,0,1-4.36-.77,9.79,9.79,0,0,1-5.66-5.55A11.26,11.26,0,0,1,137,33.77Zm3.82-.23a8.79,8.79,0,0,0,.51,3,7.06,7.06,0,0,0,1.43,2.4,6.78,6.78,0,0,0,2.22,1.6,7.59,7.59,0,0,0,5.77,0A6.58,6.58,0,0,0,153,39a7.09,7.09,0,0,0,1.44-2.4,8.78,8.78,0,0,0,.5-3,8,8,0,0,0-.5-2.87A7,7,0,0,0,153,28.34a6.47,6.47,0,0,0-2.23-1.56,7.59,7.59,0,0,0-5.77,0,6.53,6.53,0,0,0-2.22,1.56,7.19,7.19,0,0,0-1.43,2.33,8,8,0,0,0-.51,2.87Z"/></g><path id="Path_3069" data-name="Path 3069" class="cls-3" d="M117.66,25.38a2.28,2.28,0,1,1-2.27-2.29,2.28,2.28,0,0,1,2.27,2.29Z"/><g id="Group_4060" data-name="Group 4060"><path id="Path_3070" data-name="Path 3070" class="cls-3" d="M91.07,48.05h1.58v5.3h7.11v-5.3h1.58v12.5H99.76V54.72H92.65v5.83H91.07Z"/><path id="Path_3071" data-name="Path 3071" class="cls-3" d="M104.85,48.05h8.37v1.38h-6.8v3.92h6.34v1.37h-6.34v4.45h7.13v1.38h-8.7Z"/><path id="Path_3072" data-name="Path 3072" class="cls-3" d="M120.52,48.05H122l5.67,12.5h-1.85l-1.35-3.07h-6.66l-1.38,3.07h-1.78Zm.71,1.9h0l-2.76,6.15h5.44Z"/><path id="Path_3073" data-name="Path 3073" class="cls-3" d="M129.62,48.05h1.58V59.17h6.1v1.38h-7.68Z"/><path id="Path_3074" data-name="Path 3074" class="cls-3" d="M146.42,49.43H142V60.55h-1.58V49.43H136V48.05h10.38Z"/><path id="Path_3075" data-name="Path 3075" class="cls-3" d="M148.48,48.05h1.58v5.3h7.11v-5.3h1.58v12.5h-1.58V54.72h-7.11v5.83h-1.58Z"/></g></g></g></g></svg>
